<svg xmlns="http://www.w3.org/2000/svg" viewBox="0 0 1567.7 1567.7"><defs><style>.cls-1{fill:#fff;}.cls-2{fill:#1b4f9c;}</style></defs><g id="Layer_2" data-name="Layer 2"><g id="Layer_1-2" data-name="Layer 1"><g id="Facebook"><circle class="cls-1" cx="783.85" cy="783.85" r="783.85"/><g id="iUwC20.tif"><path class="cls-2" d="M851.43,1300.67H667.34c-12.57-5-16.48-14.52-16.45-27.72q.4-202.92.16-405.83v-13.2H638.59q-57.52,0-115,0c-19.91,0-26.92-7-26.95-27.23q-.11-78.17,0-156.32c0-19.79,7.39-26.93,27.42-27q58-.06,116,0c3.5,0,7-.31,11-.49,0-37.55.16-73.93,0-110.3s4-72,16.32-106.29c18-50.47,48.94-90.59,95.55-117.92,42-24.65,88-33.69,136-33.82,41.35-.12,82.7,0,124.05.08,19.75,0,27.16,7.39,27.2,27.19q.13,60.63,0,121.25c0,10,.27,20.06-.37,30-.75,11.79-8.13,18.84-19.87,19.82-4.3.36-8.66.13-13,.19-32,.44-64.06-.21-96,1.62-35.6,2-52.73,20.95-53.43,56.88-.64,32.39-.31,64.8-.4,97.2,0,4.56,0,9.12,0,14.57h11.93q69,0,138,0c19.24,0,26.72,7.44,26.74,26.6q.07,78.66-.05,157.32c0,19.45-7.15,26.55-26.57,26.57q-69.53.08-139,0H867.16v14.56q0,201.4.13,402.82C867.31,1284.43,864.05,1294.84,851.43,1300.67Z"/></g></g></g></g></svg>