<svg xmlns="http://www.w3.org/2000/svg" viewBox="0 0 1567.7 1567.7"><defs><style>.cls-1{fill:#fff;}.cls-2{fill:#1b4f9c;}</style></defs><g id="Layer_2" data-name="Layer 2"><g id="Layer_1-2" data-name="Layer 1"><g id="Tiktok"><circle class="cls-1" cx="783.85" cy="783.85" r="783.85"/><g id="c0rcsA.tif"><path class="cls-2" d="M676.58,1288.33H656.49c-1-.13-2.08-.29-3.13-.39-10.55-1.06-21.17-1.66-31.64-3.24a291.18,291.18,0,0,1-76-22.34c-77.94-35-132.87-92.44-165.88-171a287.2,287.2,0,0,1-18.91-68.94c-2.92-19.47-2.58-39.07-2.9-58.65-.4-25,3.57-49.47,10.49-73.4,24.18-83.58,74.32-147,149.67-190.2,39-22.4,81.24-35.27,126.05-39.38A288.33,288.33,0,0,1,721.52,664c1.55.28,2,.86,2,2.37,0,7.19.16,14.37.08,21.56q-.87,80.1-1.83,160.21c0,.53-.14,1.07-.22,1.7-.62-.12-1.11-.16-1.56-.3a155.27,155.27,0,0,0-40.16-6.92c-22.26-.9-43.85,2.44-64.14,11.81-33.26,15.36-57.49,39.91-72.69,73.26-6.22,13.63-10.54,27.78-10.58,42.92,0,10.45,0,20.9.41,31.34a78.16,78.16,0,0,0,2,14.25c5.51,24.35,17.17,45.54,33.93,63.89,18.35,20.08,40.43,34.37,66.72,41.83,14.44,4.1,29.13,4.88,44.11,4.3,33.68-1.29,62.83-13.37,88.19-35.23,17.41-15,29.6-33.78,39-54.52a59.11,59.11,0,0,0,5.41-22.46c.83-24.15,2.2-48.31,2.33-72.47.47-83,.54-166.09.69-249.14q.35-201.26.62-402.51c0-1.35,0-2.7,0-4.56H979.29c.32,3.81.62,7.8,1,11.78,2.88,31.94,10.41,62.7,23.62,92q31.67,70.2,99.1,107.45c33.28,18.29,69.13,28.73,106.42,34.72,6.76,1.09,13.55,2,20.33,2.94V702.31c-8.64-.48-17.29-.8-25.91-1.46a452.2,452.2,0,0,1-63.82-9.63,417.62,417.62,0,0,1-89.27-30.8c-21-10-40.9-22.08-60.4-34.77-1.19-.78-2.4-1.54-4-2.57V627q-.3,175-.59,350.09a293.51,293.51,0,0,1-10.6,77.12c-19.82,72.64-59.79,131.62-121.07,175.54-51.36,36.81-108.77,56.51-172.16,58.12C680.13,1287.9,678.36,1288.17,676.58,1288.33Z"/></g></g></g></g></svg>