<svg xmlns="http://www.w3.org/2000/svg" viewBox="0 0 1567.7 1567.7"><defs><style>.cls-1{fill:#fff;}.cls-2{fill:#1b4f9c;}</style></defs><g id="Layer_2" data-name="Layer 2"><g id="Layer_1-2" data-name="Layer 1"><g id="Youtube"><circle class="cls-1" cx="783.85" cy="783.85" r="783.85"/><g id="Wd0Wb3.tif"><path class="cls-2" d="M281.94,911.21v-288c1.3-12.93,2.45-25.88,3.92-38.79,3-26.41,8.8-52,22.31-75.35,21.41-37,56.37-54,95.64-64,43-11,87-13.73,131.17-13.78q229.35-.32,458.69-.13c31.34,0,62.72.67,94,2.43,33.94,1.91,67.53,6.86,99.73,18.61,41.12,15,69.66,42.22,83.39,84.41,10.94,33.65,13.79,68.42,14.08,103.33.72,85.19,1.53,170.41,0,255.58-.58,33.38-4.83,67.13-11.52,99.87-13,63.88-50.36,107.4-114.68,125.82-36.75,10.52-74.37,14.78-112.24,14.92-165.31.61-330.63.45-495.94.5-45.2,0-90.09-3.09-133.75-15.83-47.41-13.84-85.67-39.54-107.88-85.28-13.41-27.63-19.72-57.18-23-87.49C284.53,935.76,283.25,923.48,281.94,911.21ZM668.34,779c0,34.91-.08,69.83,0,104.74.09,31.55,23.89,46.17,51.77,31.68Q820.81,863.14,921.4,810.62c13.14-6.82,22.26-16.26,22.09-31.78-.16-15-9-24.25-21.86-30.9-67.22-34.7-134.27-69.72-201.47-104.46-27.74-14.34-51.72.47-51.8,31.79C668.26,709.86,668.34,744.45,668.34,779Z"/><path class="cls-1" d="M668.34,779c0-34.59-.08-69.18,0-103.77.08-31.32,24.06-46.13,51.8-31.79,67.2,34.74,134.25,69.76,201.47,104.46,12.88,6.65,21.7,15.87,21.86,30.9.17,15.52-9,25-22.09,31.78Q820.69,862.9,720.13,915.46c-27.88,14.49-51.68-.13-51.77-31.68C668.26,848.87,668.34,814,668.34,779Z"/></g></g></g></g></svg>